
<svg xmlns:dc="http://purl.org/dc/elements/1.1/" xmlns:cc="http://creativecommons.org/ns#" xmlns:rdf="http://www.w3.org/1999/02/22-rdf-syntax-ns#" xmlns:svg="http://www.w3.org/2000/svg" xmlns="http://www.w3.org/2000/svg" xmlns:sodipodi="http://sodipodi.sourceforge.net/DTD/sodipodi-0.dtd" xmlns:inkscape="http://www.inkscape.org/namespaces/inkscape" id="svg2" xml:space="preserve" width="99.883598" height="46.209465" viewBox="0 0 99.883598 46.209465" sodipodi:docname="ERP-logo-with-byline.svg" inkscape:version="0.92.4 (5da689c313, 2019-01-14)"><metadata></metadata><defs id="defs6"><clipPath id="clipPath18"><path d="M 41.331,3.07 H 251.45 V 123.14 H 41.331 Z" id="path16" inkscape:connector-curvature="0"></path></clipPath><clipPath id="clipPath50"><path d="M 41.331,3.07 H 251.45 V 123.14 H 41.331 Z" id="path48" inkscape:connector-curvature="0"></path></clipPath><clipPath id="clipPath76"><path d="M 41.331,3.07 H 251.45 V 123.14 H 41.331 Z" id="path74" inkscape:connector-curvature="0"></path></clipPath><clipPath id="clipPath104"><path d="M 41.331,3.07 H 251.45 V 123.14 H 41.331 Z" id="path102" inkscape:connector-curvature="0"></path></clipPath></defs><g id="g10" inkscape:groupmode="layer" inkscape:label="Final_LogoTransparent (1)" transform="matrix(1.3333333,0,0,-1.3333333,-0.05600707,191.94708)" style="display:inline"><g id="g12" transform="translate(-56.295795,35.829809)"><g id="g14" clip-path="url(#clipPath18)"><g id="g20" transform="translate(105.4785,79.3647)"><path d="m 0,0 v 28.718 h 10.902 c 4.132,0 6.823,-0.144 8.08,-0.431 1.926,-0.433 3.539,-1.37 4.837,-2.812 1.303,-1.442 1.953,-3.307 1.953,-5.593 0,-1.763 -0.374,-3.245 -1.124,-4.446 -0.749,-1.202 -1.701,-2.144 -2.857,-2.831 -1.154,-0.685 -2.329,-1.14 -3.522,-1.36 -1.621,-0.276 -3.97,-0.412 -7.047,-0.412 H 6.794 V 0 Z m 6.794,23.858 v -8.149 h 3.718 c 2.679,0 4.468,0.15 5.37,0.451 0.904,0.302 1.608,0.771 2.123,1.411 0.511,0.64 0.769,1.385 0.769,2.232 0,1.045 -0.36,1.907 -1.081,2.587 -0.719,0.679 -1.626,1.103 -2.726,1.274 -0.813,0.129 -2.444,0.194 -4.89,0.194 z" style="fill:#595479;fill-opacity:1;fill-rule:nonzero;stroke:none" id="path22" inkscape:connector-curvature="0"></path></g><g id="g24" transform="translate(100.2529,84.9663)"><path d="m 0,0 c -1.621,2.233 -2.909,3.787 -3.868,4.663 -0.956,0.874 -2.168,1.678 -3.637,2.41 2.954,0.365 5.172,1.248 6.655,2.653 1.485,1.403 2.228,3.182 2.228,5.337 0,1.698 -0.49,3.207 -1.47,4.526 -0.979,1.318 -2.282,2.235 -3.911,2.751 -1.632,0.515 -4.243,0.773 -7.84,0.773 h -6.585 v -4.856 h 4.38 c 2.755,0 4.407,-0.033 4.96,-0.099 1.1,-0.156 1.953,-0.532 2.558,-1.124 0.602,-0.597 0.909,-1.376 0.909,-2.342 0,-0.861 -0.231,-1.582 -0.689,-2.154 -0.46,-0.577 -1.096,-0.98 -1.905,-1.216 -0.812,-0.235 -2.848,-0.352 -6.107,-0.352 h -4.106 V 6.357 c 0.031,-0.002 0.057,-0.003 0.088,-0.005 1.256,-0.045 3.298,-0.142 3.789,-0.289 0.718,-0.216 1.399,-0.615 2.041,-1.195 0.643,-0.583 1.835,-1.989 3.58,-4.222 l 4.913,-6.248 h 8.126 z" style="fill:#ff6d0f;fill-opacity:1;fill-rule:nonzero;stroke:none" id="path26" inkscape:connector-curvature="0"></path></g></g></g><path d="M 7.5522053,131.83081 H 24.899205 v -4.622 H 7.5522053 Z" style="fill:#ff6d0f;fill-opacity:1;fill-rule:nonzero;stroke:none" id="path28" inkscape:connector-curvature="0"></path><path d="M 0.71320528,113.82881 H 2.0882053 v -4.45 H 0.71320528 Z" style="fill:#7e7e73;fill-opacity:1;fill-rule:nonzero;stroke:none" id="path30" inkscape:connector-curvature="0"></path><g id="g32" transform="translate(3.0831053,113.83081)"><path d="M 0,0 H 1.284 L 2.96,-2.463 V 0 H 4.253 V -4.449 H 2.96 L 1.293,-2.006 V -4.449 H 0 Z" style="fill:#7e7f74;fill-opacity:1;fill-rule:nonzero;stroke:none" id="path34" inkscape:connector-curvature="0"></path></g><g id="g36" transform="translate(7.9371053,113.83081)"><path d="M 0,0 H 4.178 V -1.098 H 2.777 V -4.449 H 1.406 v 3.351 H 0 Z" style="fill:#7e7f74;fill-opacity:1;fill-rule:nonzero;stroke:none" id="path38" inkscape:connector-curvature="0"></path></g><g id="g40" transform="translate(12.737405,113.83081)"><path d="M 0,0 H 3.682 V -0.953 H 1.375 V -1.657 H 3.517 V -2.565 H 1.375 V -3.443 H 3.748 V -4.449 H 0 Z" style="fill:#7e7f74;fill-opacity:1;fill-rule:nonzero;stroke:none" id="path42" inkscape:connector-curvature="0"></path></g><g id="g44" transform="translate(-56.295795,35.829809)"><g id="g46" clip-path="url(#clipPath50)"><g id="g52" transform="translate(73.5386,73.5493)"><path d="M 0,0 V 4.452 H 2.291 C 2.715,4.452 3.04,4.413 3.266,4.342 3.491,4.268 3.67,4.135 3.808,3.936 3.946,3.739 4.014,3.499 4.014,3.216 4.014,2.969 3.963,2.757 3.857,2.579 3.752,2.397 3.605,2.255 3.423,2.141 3.305,2.069 3.146,2.012 2.941,1.967 3.106,1.908 3.223,1.855 3.298,1.801 3.348,1.765 3.423,1.687 3.517,1.567 3.613,1.449 3.679,1.356 3.709,1.292 L 4.375,0 H 2.825 L 2.087,1.363 C 1.996,1.537 1.913,1.653 1.84,1.706 1.738,1.774 1.627,1.808 1.503,1.808 H 1.382 V 0 Z m 1.382,2.647 h 0.579 c 0.062,0 0.185,0.022 0.364,0.062 C 2.414,2.729 2.492,2.773 2.549,2.85 2.608,2.926 2.634,3.007 2.634,3.106 2.634,3.251 2.589,3.361 2.5,3.437 2.407,3.513 2.237,3.554 1.987,3.554 H 1.382 Z" style="fill:#7e7f74;fill-opacity:1;fill-rule:nonzero;stroke:none" id="path54" inkscape:connector-curvature="0"></path></g></g></g><g id="g56" transform="translate(22.068005,113.83081)"><path d="M 0,0 H 1.283 L 2.958,-2.463 V 0 H 4.253 V -4.449 H 2.958 L 1.292,-2.006 V -4.449 H 0 Z" style="fill:#7e7f74;fill-opacity:1;fill-rule:nonzero;stroke:none" id="path58" inkscape:connector-curvature="0"></path></g><g id="g60" transform="translate(29.909305,110.11401)"><path d="m 0,0 h -1.561 l -0.216,-0.735 h -1.405 l 1.674,4.452 h 1.499 l 1.67,-4.452 H 0.22 Z M -0.284,0.963 -0.778,2.562 -1.263,0.963 Z" style="fill:#7e7f74;fill-opacity:1;fill-rule:nonzero;stroke:none" id="path62" inkscape:connector-curvature="0"></path></g><g id="g64" transform="translate(31.267705,113.83081)"><path d="M 0,0 H 4.177 V -1.098 H 2.776 V -4.449 H 1.402 v 3.351 H 0 Z" style="fill:#7e7f74;fill-opacity:1;fill-rule:nonzero;stroke:none" id="path66" inkscape:connector-curvature="0"></path></g><path d="m 36.122205,113.82881 h 1.377 v -4.45 h -1.377 z" style="fill:#7e7f74;fill-opacity:1;fill-rule:nonzero;stroke:none" id="path68" inkscape:connector-curvature="0"></path><g id="g70" transform="translate(-56.295795,35.829809)"><g id="g72" clip-path="url(#clipPath76)"><g id="g78" transform="translate(94.6094,75.7734)"><path d="m 0,0 c 0,0.726 0.198,1.289 0.606,1.695 0.405,0.406 0.967,0.608 1.689,0.608 0.741,0 1.31,-0.199 1.71,-0.596 C 4.408,1.311 4.608,0.751 4.608,0.036 4.608,-0.485 4.52,-0.914 4.346,-1.244 4.17,-1.575 3.915,-1.836 3.586,-2.02 3.254,-2.205 2.845,-2.3 2.35,-2.3 1.848,-2.3 1.434,-2.219 1.106,-2.058 0.775,-1.898 0.508,-1.646 0.304,-1.301 0.101,-0.954 0,-0.521 0,0 m 1.373,-0.007 c 0,-0.45 0.084,-0.771 0.25,-0.966 0.165,-0.2 0.392,-0.295 0.683,-0.295 0.294,0 0.523,0.095 0.684,0.286 0.162,0.192 0.242,0.54 0.242,1.037 0,0.418 -0.085,0.723 -0.253,0.918 C 2.81,1.166 2.582,1.261 2.295,1.261 2.015,1.261 1.792,1.163 1.623,0.968 1.457,0.773 1.373,0.445 1.373,-0.007" style="fill:#7e7f74;fill-opacity:1;fill-rule:nonzero;stroke:none" id="path80" inkscape:connector-curvature="0"></path></g></g></g><g id="g82" transform="translate(43.671505,113.83081)"><path d="M 0,0 H 1.282 L 2.958,-2.463 V 0 H 4.253 V -4.449 H 2.958 L 1.289,-2.006 V -4.449 H 0 Z" style="fill:#7e7f74;fill-opacity:1;fill-rule:nonzero;stroke:none" id="path84" inkscape:connector-curvature="0"></path></g><g id="g86" transform="translate(51.511805,110.11401)"><path d="m 0,0 h -1.563 l -0.216,-0.735 h -1.403 l 1.673,4.452 H -0.01 L 1.662,-0.735 H 0.221 Z M -0.287,0.963 -0.775,2.562 -1.264,0.963 Z" style="fill:#7e7f74;fill-opacity:1;fill-rule:nonzero;stroke:none" id="path88" inkscape:connector-curvature="0"></path></g><g id="g90" transform="translate(61.894605,113.83081)"><path d="M 0,0 H 1.376 V -3.355 H 3.521 V -4.449 H 0 Z" style="fill:#7e7f74;fill-opacity:1;fill-rule:nonzero;stroke:none" id="path92" inkscape:connector-curvature="0"></path></g><g id="g94" transform="translate(66.039605,113.83081)"><path d="M 0,0 H 1.376 V -3.355 H 3.52 V -4.449 H 0 Z" style="fill:#7e7f74;fill-opacity:1;fill-rule:nonzero;stroke:none" id="path96" inkscape:connector-curvature="0"></path></g><g id="g98" transform="translate(-56.295795,35.829809)"><g id="g100" clip-path="url(#clipPath104)"><g id="g106" transform="translate(129.335,75.3716)"><path d="M 0,0 1.204,-0.364 C 1.124,-0.702 0.998,-0.985 0.823,-1.211 0.649,-1.437 0.433,-1.608 0.176,-1.723 -0.082,-1.839 -0.411,-1.896 -0.81,-1.896 c -0.482,0 -0.877,0.069 -1.183,0.209 -0.307,0.143 -0.572,0.388 -0.796,0.742 -0.223,0.355 -0.333,0.804 -0.333,1.359 0,0.737 0.195,1.301 0.59,1.698 0.388,0.394 0.943,0.593 1.659,0.593 0.56,0 0.999,-0.115 1.321,-0.34 C 0.769,2.138 1.009,1.791 1.163,1.322 L -0.052,1.051 C -0.094,1.187 -0.14,1.284 -0.185,1.349 -0.262,1.453 -0.354,1.534 -0.466,1.591 -0.578,1.646 -0.703,1.674 -0.841,1.674 -1.152,1.674 -1.39,1.551 -1.557,1.301 -1.682,1.113 -1.745,0.823 -1.745,0.426 c 0,-0.495 0.076,-0.835 0.224,-1.014 0.15,-0.185 0.362,-0.278 0.632,-0.278 0.265,0 0.463,0.076 0.597,0.223 C -0.157,-0.495 -0.06,-0.281 0,0" style="fill:#7e7f74;fill-opacity:1;fill-rule:nonzero;stroke:none" id="path108" inkscape:connector-curvature="0"></path></g></g></g><g id="g110" transform="translate(6.8370053,127.84931)"><path d="m 0,0 v -7.815 h 18.796 v -4.84 H -6.795 V 16.111 H 18.156 V 11.204 H 0 V 4.837" style="fill:#202620;fill-opacity:1;fill-rule:nonzero;stroke:none" id="path112" inkscape:connector-curvature="0"></path></g><g id="g114" transform="translate(53.608505,113.83081)"><path d="M 0,0 H 1.377 V -3.355 H 3.521 V -4.449 H 0 Z" style="fill:#7e7f74;fill-opacity:1;fill-rule:nonzero;stroke:none" id="path116" inkscape:connector-curvature="0"></path></g></g></svg>